<?xml version="1.0" encoding="utf-8"?>
<!-- Generator: Adobe Illustrator 22.0.0, SVG Export Plug-In . SVG Version: 6.00 Build 0)  -->
<svg version="1.1" id="图层_1" xmlns="http://www.w3.org/2000/svg" xmlns:xlink="http://www.w3.org/1999/xlink" x="0px" y="0px"
	 viewBox="0 0 500 500" style="enable-background:new 0 0 500 500;" xml:space="preserve">
<style type="text/css">
	.st0{fill:#0D47A1;}
</style>
<path class="st0" d="M406.2,93c-36.6,3.2-68.9,30.1-86.1,47.4c-22.6,23.6-39.8,49.6-53.8,69.9c-2.2-7.5-4.3-14-7.5-17.2
	c1.1-1.1,2.2-2.2,2.2-4.3c0-2.2-1.1-3.2-3.2-4.3c3.2-7.5,23.6-60.3,46.3-81.8c5.3-4.3,7.5-7.5,7.5-9.7c1.1-3.2,0-4.3,0-4.3
	c-23.6,8.6-50.6,81.8-54.9,92.5c0,0,0,0-1.1,0c-3.2,0-5.3,2.2-5.3,5.3c0-3.2-2.2-5.3-5.3-5.3c-6.5-8.6-46.3-77.5-71-81.8
	c-1.1,0-2.2,1.1-1.1,2.2c1.1,1.1,4.3,5.3,8.6,7.5c24.8,17.2,54.9,62.4,60.3,71c-2.2,1.1-3.2,2.2-3.2,5.3c0,2.2,1.1,3.2,2.2,4.3
	c-3.2,4.3-6.5,8.6-7.5,16.1c-13-20.5-32.3-46.3-53.8-69.9c-18.3-17.2-50.6-44.1-86.1-47.4c-59.4-3.2-60.4,17.3-60.4,19.4
	c4.3,11.8,7.5,15.1,21.5,24.8c4.3,8.6,5.3,8.6,13,17.2c7.5,6.5,1.1,19.3,9.7,29.1c2.2,4.3-7.5,14,2.2,29.1
	c2.2,23.6,4.3,30.1,10.8,36.6c4.3,4.3,16.1,6.5,29.1,6.5c-7.5,3.2-13,6.5-18.3,8.6c-7.5,6.5-28,26.9-23.6,34.4
	c2.2,4.3,5.3,4.3,6.5,7.5c1.1,3.2-2.2,10.8,0,16.1c3.2,5.3,6.5,4.3,7.5,7.5c2.2,5.3-1.1,14-1.1,19.3c1.1,2.2,6.5,2.2,8.6,7.5
	c4.3,6.5-2.2,17.2,2.2,23.6c3.2,3.2,10.8-1.1,16.1,7.5c6.5,11.8,2.2,11.8,6.5,20.5c5.3,4.3,13-4.3,21.5,0c4.3,1.1,9.7,6.5,14,7.5
	c4.3,2.2,37.6-20.5,47.4-34.4c6.5-9.7,17.2-24.8,26.9-39.8c3.2,19.3,8.6,29.1,16.1,29.1s11.8-10.8,16.1-30.1
	c9.7,15.1,21.5,31.3,28,40.9c9.7,14,43.1,36.6,47.4,34.4c4.3-2.2,9.7-7.5,14-7.5c7.5-4.3,15.1,4.3,21.5,0c3.2-7.5-1.1-7.5,6.5-20.5
	c5.3-7.5,13-3.2,16.1-7.5c4.3-6.5-3.2-17.2,2.2-23.6c3.2-5.3,7.5-5.3,8.6-7.5c0-5.3-3.2-14-1.1-19.3c2.2-5.3,5.3-4.3,7.5-7.5
	c2.2-5.3-2.2-13,0-16.1c1.1-3.2,4.3-3.2,6.5-7.5c5.3-6.5-15.1-28-23.6-34.4c-4.3-3.2-10.8-6.5-18.3-8.6c13,0,24.8-2.2,29.1-6.5
	c7.5-6.5,8.6-11.8,10.8-36.6c9.7-15.1-1.1-23.6,2.2-29.1c8.6-9.7,2.2-22.6,9.7-29.1c7.5-7.5,7.5-7.5,13-17.2
	c14-9.7,17.2-13,21.5-24.8C468.6,108.1,468.6,87.7,406.2,93z"/>
</svg>
